<?xml version="1.0" standalone="no"?>
<!DOCTYPE svg PUBLIC "-//W3C//DTD SVG 20010904//EN"
 "http://www.w3.org/TR/2001/REC-SVG-20010904/DTD/svg10.dtd">
<svg version="1.0" xmlns="http://www.w3.org/2000/svg"
 width="900.000000pt" height="900.000000pt" viewBox="0 0 900.000000 900.000000"
 preserveAspectRatio="xMidYMid meet">
<metadata>
Created by potrace 1.14, written by Peter Selinger 2001-2017
</metadata>
<g transform="translate(0.000000,900.000000) scale(0.100000,-0.100000)"
fill="#000000" stroke="none">
<path d="M4229 8996 c-2 -2 -47 -6 -99 -10 -52 -3 -111 -8 -130 -11 -19 -3
-59 -7 -88 -11 -29 -3 -63 -7 -75 -10 -12 -2 -40 -6 -62 -9 -22 -3 -47 -7 -55
-10 -8 -2 -31 -6 -50 -9 -119 -18 -375 -82 -550 -138 -392 -127 -761 -303
-1090 -521 -102 -68 -270 -185 -280 -197 -3 -3 -39 -32 -80 -65 -41 -32 -88
-71 -105 -86 -407 -360 -705 -719 -957 -1149 -75 -128 -197 -372 -248 -495
-23 -55 -48 -113 -55 -130 -56 -129 -198 -609 -219 -745 -3 -19 -10 -60 -16
-90 -12 -61 -29 -174 -36 -235 -2 -22 -7 -53 -9 -70 -20 -136 -28 -700 -12
-865 11 -116 18 -182 23 -203 2 -11 6 -45 9 -76 4 -31 8 -63 10 -71 3 -8 6
-28 9 -45 12 -69 17 -99 31 -165 206 -979 742 -1869 1515 -2516 413 -345 924
-636 1390 -791 41 -13 84 -29 95 -33 78 -35 454 -128 620 -154 98 -16 166 -26
210 -31 28 -3 65 -8 83 -11 186 -25 832 -25 968 0 10 2 46 7 79 10 33 4 71 9
85 11 14 3 39 7 55 10 83 11 119 18 220 41 61 13 119 26 130 28 52 10 192 49
310 87 1480 470 2622 1690 2995 3199 21 86 41 173 44 194 4 22 8 48 11 60 3
12 7 32 9 46 2 14 7 41 10 60 7 40 12 83 21 160 4 30 9 66 11 80 27 167 26
772 -1 980 -10 76 -35 244 -40 270 -2 14 -10 54 -16 90 -7 36 -21 101 -31 145
-11 44 -21 88 -23 98 -15 73 -100 342 -158 502 -48 129 -185 425 -258 555 -59
106 -144 245 -151 248 -5 2 -8 8 -8 14 0 14 -166 251 -244 348 -235 294 -476
536 -746 750 -36 28 -72 56 -80 63 -22 18 -237 168 -290 202 -304 197 -680
374 -1039 489 -125 40 -440 123 -496 131 -20 3 -41 6 -140 25 -27 5 -72 12
-98 15 -27 4 -56 8 -65 10 -10 1 -53 6 -96 10 -43 4 -88 9 -100 12 -23 5 -641
14 -647 9z"/>
</g>
</svg>
